<svg width="78" height="36" viewBox="0 0 78 36" fill="none" xmlns="http://www.w3.org/2000/svg">
<path d="M36.7072 28.068H36.0659V26.3566H36.6823C37.0402 26.3566 37.2242 26.555 37.2242 26.7931C37.2259 26.8824 37.1974 26.9697 37.1432 27.0408C37.0891 27.1119 37.0126 27.1627 36.9259 27.185C37.0219 27.2064 37.1077 27.2599 37.1691 27.3365C37.2306 27.4132 37.264 27.5085 37.2639 27.6066C37.2639 27.8448 37.0601 28.068 36.7072 28.068ZM36.6624 26.5401H36.2896V27.0957H36.6674C36.8762 27.0957 36.9955 26.9915 36.9955 26.8179C36.9955 26.6443 36.8811 26.5401 36.6624 26.5401ZM36.6624 27.2793H36.2747V27.8844H36.6724C36.8911 27.8844 37.0253 27.7753 37.0253 27.5868C37.0253 27.3983 36.8961 27.2793 36.6774 27.2793H36.6624Z" fill="#6C6C75"/>
<path d="M38.8 26.3566H39.0237V27.438C39.0237 27.7555 39.1928 27.8894 39.4463 27.8894C39.6998 27.8894 39.8688 27.7555 39.8688 27.438V26.3566H40.0925V27.438C40.0925 27.609 40.0244 27.7731 39.9032 27.894C39.782 28.0149 39.6176 28.0829 39.4463 28.0829C39.2749 28.0829 39.1105 28.0149 38.9893 27.894C38.8681 27.7731 38.8 27.609 38.8 27.438V26.3566Z" fill="#6C6C75"/>
<path d="M42.2448 28.0878C41.8969 28.0878 41.6533 27.8943 41.6483 27.5917H41.8869C41.8912 27.634 41.904 27.675 41.9244 27.7122C41.9449 27.7495 41.9726 27.7823 42.006 27.8087C42.0393 27.835 42.0777 27.8544 42.1187 27.8658C42.1597 27.8771 42.2026 27.88 42.2448 27.8745C42.4586 27.8745 42.5878 27.7554 42.5878 27.5917C42.5878 27.1304 41.6583 27.4231 41.6583 26.7881C41.6583 26.5054 41.8869 26.3169 42.2299 26.3169C42.296 26.3072 42.3634 26.3108 42.4281 26.3277C42.4927 26.3445 42.5533 26.3742 42.6062 26.415C42.6591 26.4557 42.7032 26.5067 42.7359 26.5649C42.7686 26.623 42.7893 26.6871 42.7966 26.7534H42.553C42.5375 26.6786 42.495 26.612 42.4336 26.5664C42.3723 26.5207 42.2963 26.4989 42.22 26.5054C42.1793 26.499 42.1378 26.5014 42.0982 26.5123C42.0586 26.5233 42.0218 26.5425 41.9903 26.5689C41.9587 26.5952 41.9332 26.6279 41.9153 26.6649C41.8976 26.7018 41.8879 26.7422 41.8869 26.7832C41.8869 27.2247 42.8115 26.9469 42.8115 27.5818C42.8137 27.6541 42.7999 27.7259 42.7714 27.7923C42.7428 27.8588 42.7 27.9181 42.6461 27.9664C42.5921 28.0145 42.5282 28.0504 42.4589 28.0714C42.3896 28.0924 42.3165 28.098 42.2448 28.0878Z" fill="#6C6C75"/>
<path d="M45.1477 26.3566C45.3155 26.346 45.4825 26.3882 45.6252 26.4771C45.7678 26.5661 45.879 26.6974 45.943 26.8526H45.6895C45.6456 26.7513 45.5715 26.6659 45.4772 26.6082C45.3829 26.5504 45.273 26.5232 45.1626 26.5302C44.9819 26.5302 44.8088 26.6018 44.681 26.7293C44.5533 26.8567 44.4816 27.0296 44.4816 27.2098C44.4816 27.3901 44.5533 27.5629 44.681 27.6903C44.8088 27.8178 44.9819 27.8894 45.1626 27.8894C45.2723 27.8961 45.3815 27.8693 45.4756 27.8126C45.5697 27.7559 45.6443 27.6719 45.6895 27.5719H45.9579C45.8938 27.7271 45.7827 27.8584 45.6401 27.9474C45.4974 28.0364 45.3304 28.0785 45.1626 28.068C44.9305 28.068 44.708 27.976 44.544 27.8123C44.3799 27.6486 44.2877 27.4265 44.2877 27.1949C44.2877 26.9634 44.3799 26.7413 44.544 26.5776C44.708 26.4138 44.9305 26.3219 45.1626 26.3219L45.1477 26.3566Z" fill="#6C6C75"/>
<path d="M48.523 27.686H47.7726L47.6334 28.068H47.3998L48.0211 26.3566H48.2794L48.8958 28.0581H48.6721L48.523 27.686ZM48.1454 26.6393L47.8372 27.5074H48.4584L48.1454 26.6393Z" fill="#6C6C75"/>
<path d="M50.9437 28.0878C50.5957 28.0878 50.3521 27.8943 50.3472 27.5917H50.5858C50.5902 27.634 50.6027 27.675 50.6235 27.7122C50.6439 27.7495 50.6713 27.7823 50.7051 27.8087C50.7384 27.835 50.7766 27.8544 50.8174 27.8658C50.8587 27.8771 50.9014 27.88 50.9437 27.8745C51.1574 27.8745 51.2866 27.7554 51.2866 27.5917C51.2866 27.1304 50.3571 27.4231 50.3571 26.7881C50.3571 26.5054 50.5858 26.3169 50.9287 26.3169C50.9949 26.3072 51.0625 26.3108 51.1271 26.3277C51.1917 26.3445 51.2523 26.3742 51.305 26.415C51.3582 26.4557 51.402 26.5067 51.4348 26.5649C51.4676 26.623 51.488 26.6871 51.4954 26.7534H51.2469C51.2335 26.6785 51.1922 26.6113 51.1316 26.5654C51.0709 26.5194 50.9949 26.498 50.9188 26.5054C50.7299 26.5054 50.5858 26.5996 50.5858 26.7832C50.5858 27.2247 51.5103 26.9469 51.5103 27.5818C51.5123 27.6541 51.4989 27.7259 51.4701 27.7923C51.4417 27.8588 51.399 27.9181 51.3448 27.9664C51.2911 28.0145 51.227 28.0504 51.1579 28.0714C51.0883 28.0924 51.0152 28.098 50.9437 28.0878Z" fill="#6C6C75"/>
<path d="M56.3124 26.3566V28.068H56.0887L55.189 26.7038V28.068H54.9603V26.3566H55.189L56.0887 27.7158V26.3566H56.3124Z" fill="#6C6C75"/>
<path d="M58.7032 28.0878C58.5282 28.0918 58.3562 28.0436 58.2091 27.9496C58.0619 27.8555 57.9461 27.7198 57.8765 27.5598C57.8064 27.3997 57.7865 27.2226 57.8179 27.051C57.8497 26.8794 57.9317 26.7211 58.054 26.5963C58.1763 26.4715 58.3328 26.3859 58.5043 26.3504C58.6753 26.3149 58.8533 26.3311 59.0153 26.3969C59.1774 26.4627 59.3156 26.5752 59.4135 26.72C59.5109 26.8648 59.5631 27.0353 59.5631 27.2098C59.5681 27.3247 59.5492 27.4394 59.5079 27.5467C59.4667 27.654 59.4035 27.7519 59.323 27.8341C59.2425 27.9164 59.1461 27.9813 59.0397 28.0249C58.9328 28.0685 58.8185 28.0899 58.7032 28.0878ZM58.7032 27.8894C58.8394 27.8993 58.9756 27.8681 59.0944 27.7997C59.2127 27.7314 59.3076 27.629 59.3668 27.5061C59.4259 27.3831 59.4468 27.2452 59.4264 27.1103C59.406 26.9753 59.3454 26.8496 59.2524 26.7496C59.1595 26.6495 59.0382 26.5797 58.905 26.5492C58.7718 26.5187 58.6326 26.529 58.5053 26.5786C58.3776 26.6283 58.2682 26.715 58.1912 26.8276C58.1136 26.9402 58.0724 27.0734 58.0719 27.2098C58.0644 27.2968 58.0749 27.3844 58.1032 27.4669C58.1315 27.5495 58.1772 27.6253 58.2364 27.6893C58.2961 27.7534 58.3681 27.8043 58.4487 27.8387C58.5292 27.8732 58.6157 27.8904 58.7032 27.8894Z" fill="#6C6C75"/>
<path d="M64.5487 26.8526H64.2803C64.2336 26.7552 64.159 26.6737 64.0666 26.6181C63.9736 26.5625 63.8663 26.5354 63.7584 26.5401C63.5804 26.5401 63.4094 26.6107 63.2837 26.7363C63.1579 26.8619 63.0873 27.0322 63.0873 27.2098C63.0873 27.3874 63.1579 27.5577 63.2837 27.6833C63.4094 27.8089 63.5804 27.8795 63.7584 27.8795C63.908 27.8864 64.0546 27.8348 64.167 27.7357C64.2793 27.6366 64.3484 27.4978 64.3598 27.3487H63.6739V27.1651H64.5786V27.3388C64.5607 27.5484 64.4647 27.7436 64.3087 27.8854C64.1531 28.027 63.9493 28.1047 63.7385 28.1027C63.5064 28.1027 63.2837 28.0107 63.1196 27.847C62.9556 27.6833 62.8636 27.4612 62.8636 27.2296C62.8636 26.9981 62.9556 26.776 63.1196 26.6123C63.2837 26.4486 63.5064 26.3566 63.7385 26.3566C63.9085 26.3451 64.0775 26.3866 64.2227 26.4755C64.3683 26.5644 64.4821 26.6962 64.5487 26.8526Z" fill="#6C6C75"/>
<path d="M66.1248 26.3566H66.3484V28.068H66.1248V26.3566Z" fill="#6C6C75"/>
<path d="M67.8542 26.3566H69.0174V26.5401H68.5551V28.068H68.3315V26.5401H67.8592L67.8542 26.3566Z" fill="#6C6C75"/>
<path d="M71.6222 27.2941H70.7474V28.068H70.5436V26.3566H70.7673V27.1106H71.6421V26.3566H71.8658V28.068H71.6421L71.6222 27.2941Z" fill="#6C6C75"/>
<path d="M73.4515 26.3566H73.6752V27.438C73.6658 27.4973 73.6698 27.5579 73.6876 27.6152C73.7055 27.6726 73.7364 27.7251 73.7776 27.7687C73.8189 27.8123 73.8696 27.8459 73.9258 27.8668C73.9824 27.8877 74.0426 27.8954 74.1027 27.8894C74.3513 27.8894 74.5203 27.7555 74.5203 27.438V26.3566H74.7439V27.438C74.7439 27.609 74.6758 27.7731 74.5546 27.894C74.4333 28.0149 74.2687 28.0829 74.0977 28.0829C73.9262 28.0829 73.7617 28.0149 73.6404 27.894C73.5196 27.7731 73.4515 27.609 73.4515 27.438V26.3566Z" fill="#6C6C75"/>
<path d="M77.0059 28.068H76.3646V26.3566H76.981C77.3439 26.3566 77.5228 26.555 77.5228 26.7931C77.5243 26.8824 77.496 26.9697 77.4418 27.0408C77.3876 27.1119 77.3111 27.1627 77.2246 27.185C77.321 27.2056 77.4075 27.2588 77.4691 27.3357C77.5303 27.4125 77.5636 27.5082 77.5626 27.6066C77.5477 27.8448 77.3439 28.068 77.0059 28.068ZM76.9611 26.5401H76.5883V27.0957H76.9661C77.1749 27.0957 77.2942 26.9915 77.2942 26.8179C77.2942 26.6443 77.1649 26.5401 76.9462 26.5401H76.9611ZM76.9611 27.2793H76.5684V27.8844H76.9661C77.1898 27.8844 77.319 27.7753 77.319 27.5868C77.319 27.3983 77.1848 27.2793 76.9661 27.2793H76.9611Z" fill="#6C6C75"/>
<path d="M77.831 25.3H12.783C12.7382 25.3 12.6952 25.3177 12.6635 25.3494C12.6318 25.381 12.614 25.4239 12.614 25.4686C12.614 25.5138 12.6316 25.5573 12.6632 25.5897C12.6947 25.6221 12.7377 25.641 12.783 25.6423H77.831C77.8762 25.641 77.9194 25.6221 77.9508 25.5897C77.9826 25.5573 78 25.5138 78 25.4686C78 25.4239 77.9821 25.381 77.9503 25.3494C77.9189 25.3177 77.8757 25.3 77.831 25.3Z" fill="#D3D3DD"/>
<path d="M14.493 23.9259V19.1093H13.1907C13.0589 19.1093 12.9324 19.0571 12.8392 18.964C12.746 18.871 12.6936 18.7448 12.6936 18.6132C12.6936 18.4817 12.746 18.3555 12.8392 18.2625C12.9324 18.1695 13.0589 18.1172 13.1907 18.1172H16.7597C16.8915 18.1172 17.018 18.1695 17.1112 18.2625C17.2045 18.3555 17.2568 18.4817 17.2568 18.6132C17.2568 18.7448 17.2045 18.871 17.1112 18.964C17.018 19.0571 16.8915 19.1093 16.7597 19.1093H15.4524V23.9259C15.4524 24.0575 15.4001 24.1837 15.3068 24.2767C15.2136 24.3698 15.0871 24.422 14.9553 24.422C14.8918 24.4214 14.8291 24.408 14.7709 24.3824C14.7127 24.3569 14.6605 24.3197 14.6172 24.2733C14.5739 24.2268 14.5406 24.1721 14.5192 24.1124C14.4979 24.0527 14.489 23.9892 14.493 23.9259Z" fill="#54535B"/>
<path d="M18.027 23.9259V18.6182C18.027 18.4866 18.0793 18.3605 18.1726 18.2674C18.2658 18.1744 18.3922 18.1221 18.524 18.1221C18.6559 18.1221 18.7823 18.1744 18.8755 18.2674C18.9687 18.3605 19.0211 18.4866 19.0211 18.6182V20.7958H21.6805V18.6182C21.6805 18.4866 21.7328 18.3605 21.8261 18.2674C21.9193 18.1744 22.0458 18.1221 22.1776 18.1221C22.3094 18.1221 22.4358 18.1744 22.5291 18.2674C22.6223 18.3605 22.6747 18.4866 22.6747 18.6182V23.9259C22.6747 24.0575 22.6223 24.1837 22.5291 24.2767C22.4358 24.3697 22.3094 24.422 22.1776 24.422C22.0458 24.422 21.9193 24.3697 21.8261 24.2767C21.7328 24.1837 21.6805 24.0575 21.6805 23.9259V21.7731H19.0012V23.9259C19.0012 24.0575 18.9488 24.1837 18.8556 24.2767C18.7624 24.3697 18.636 24.422 18.5042 24.422C18.3723 24.422 18.2459 24.3697 18.1527 24.2767C18.0594 24.1837 18.0071 24.0575 18.0071 23.9259H18.027Z" fill="#54535B"/>
<path d="M23.9327 23.921V18.6281C23.9327 18.4965 23.9851 18.3704 24.0783 18.2773C24.1715 18.1843 24.2979 18.132 24.4298 18.132H27.0494C27.1813 18.132 27.3077 18.1843 27.4009 18.2773C27.4941 18.3704 27.5465 18.4965 27.5465 18.6281C27.5465 18.7597 27.4941 18.8858 27.4009 18.9789C27.3077 19.0719 27.1813 19.1242 27.0494 19.1242H24.912V20.8157H26.4678C26.5711 20.8457 26.6618 20.9084 26.7263 20.9943C26.7909 21.0801 26.8257 21.1846 26.8257 21.2919C26.8257 21.3992 26.7909 21.5037 26.7263 21.5895C26.6618 21.6754 26.5711 21.738 26.4678 21.7681H24.912V23.4448H27.0445C27.1763 23.4448 27.3027 23.497 27.3959 23.59C27.4892 23.6831 27.5415 23.8093 27.5415 23.9408C27.5418 24.0666 27.4943 24.1877 27.4084 24.2799C27.3226 24.3719 27.205 24.4281 27.0793 24.4369H24.3851C24.2576 24.4255 24.1395 24.3655 24.0552 24.2694C23.971 24.1734 23.9271 24.0485 23.9327 23.921Z" fill="#54535B"/>
<path d="M30.1907 21.2869C30.1878 20.6563 30.3732 20.0392 30.7232 19.5141C31.0732 18.9891 31.5719 18.5799 32.1558 18.3388C32.7397 18.0978 33.3824 18.0357 34.0018 18.1606C34.6212 18.2854 35.1893 18.5915 35.6337 19.0398C35.6798 19.083 35.7165 19.1354 35.7413 19.1934C35.7661 19.2515 35.7785 19.314 35.7779 19.3771C35.7779 19.5087 35.7255 19.6349 35.6323 19.7279C35.539 19.8209 35.4126 19.8732 35.2808 19.8732C35.2188 19.8732 35.1575 19.861 35.1003 19.8371C35.0431 19.8133 34.9913 19.7783 34.9478 19.7343C34.7391 19.5277 34.4916 19.3644 34.2195 19.2537C33.9473 19.143 33.656 19.0872 33.3621 19.0894C32.7942 19.1163 32.2585 19.3604 31.8661 19.7709C31.4738 20.1815 31.2549 20.727 31.2549 21.2944C31.2549 21.8617 31.4738 22.4073 31.8661 22.8178C32.2585 23.2284 32.7942 23.4724 33.3621 23.4993C33.7598 23.5348 34.1581 23.4356 34.4925 23.2179C34.827 23.0001 35.0784 22.6765 35.2062 22.2989H34.1823C34.0504 22.2989 33.924 22.2466 33.8308 22.1536C33.7375 22.0606 33.6852 21.9344 33.6852 21.8028C33.6852 21.6713 33.7375 21.5451 33.8308 21.4521C33.924 21.3591 34.0504 21.3068 34.1823 21.3068H35.7928C35.9246 21.3068 36.051 21.3591 36.1443 21.4521C36.2375 21.5451 36.2899 21.6713 36.2899 21.8028C36.2462 22.5384 35.916 23.2277 35.3699 23.7236C34.8237 24.2195 34.105 24.4826 33.3671 24.4567C32.9498 24.4573 32.5364 24.3758 32.1507 24.2168C31.7651 24.0577 31.4147 23.8242 31.1196 23.5298C30.8245 23.2353 30.5906 22.8856 30.4311 22.5007C30.2717 22.1159 30.1901 21.7034 30.1907 21.2869Z" fill="#54535B"/>
<path d="M37.2395 23.9259V18.6182C37.2395 18.4866 37.2919 18.3605 37.3851 18.2674C37.4783 18.1744 37.6048 18.1221 37.7366 18.1221C37.8684 18.1221 37.9949 18.1744 38.0881 18.2674C38.1813 18.3605 38.2337 18.4866 38.2337 18.6182V23.9259C38.2337 24.0575 38.1813 24.1837 38.0881 24.2767C37.9949 24.3697 37.8684 24.422 37.7366 24.422C37.6048 24.422 37.4783 24.3697 37.3851 24.2767C37.2919 24.1837 37.2395 24.0575 37.2395 23.9259Z" fill="#54535B"/>
<path d="M40.7188 23.9259V19.1093H39.4214C39.2896 19.1093 39.1632 19.0571 39.0699 18.964C38.9767 18.871 38.9243 18.7448 38.9243 18.6132C38.9243 18.4817 38.9767 18.3555 39.0699 18.2625C39.1632 18.1695 39.2896 18.1172 39.4214 18.1172H42.9955C43.1273 18.1172 43.2537 18.1695 43.3469 18.2625C43.4401 18.3555 43.4925 18.4817 43.4925 18.6132C43.4925 18.7448 43.4401 18.871 43.3469 18.964C43.2537 19.0571 43.1273 19.1093 42.9955 19.1093H41.6832V23.9259C41.6832 24.0575 41.6308 24.1837 41.5376 24.2767C41.4443 24.3698 41.3179 24.422 41.1861 24.422C41.1219 24.4229 41.0582 24.4104 40.9992 24.3854C40.9401 24.3604 40.8869 24.3233 40.8429 24.2767C40.799 24.23 40.7653 24.1748 40.7439 24.1143C40.7225 24.054 40.714 23.9898 40.7188 23.9259Z" fill="#54535B"/>
<path d="M46.1867 23.2612C46.1459 23.1777 46.1239 23.0863 46.1221 22.9933C46.1309 22.8679 46.1871 22.7505 46.2794 22.6648C46.3717 22.5792 46.4931 22.5317 46.6192 22.532C46.7132 22.5362 46.8045 22.565 46.8839 22.6155C46.9633 22.666 47.028 22.7364 47.0715 22.8197C47.2128 23.0362 47.408 23.2122 47.6381 23.3305C47.8682 23.4487 48.1252 23.5052 48.3837 23.4944C48.9603 23.4944 49.5618 23.1719 49.5618 22.5965C49.5618 22.0211 48.9504 21.8574 48.3937 21.7135C47.1809 21.4854 46.2463 20.9645 46.2463 19.9079C46.2628 19.6541 46.3292 19.406 46.4418 19.1779C46.5544 18.9497 46.711 18.746 46.9026 18.5783C47.0942 18.4105 47.317 18.2822 47.5584 18.2005C47.7998 18.1188 48.0549 18.0855 48.3092 18.1023C48.6701 18.085 49.0294 18.1591 49.3535 18.3179C49.6776 18.4766 49.9565 18.7148 50.1633 19.0101C50.1966 19.0674 50.2135 19.1324 50.213 19.1986C50.2125 19.2576 50.2001 19.316 50.1767 19.3702C50.1533 19.4245 50.119 19.4735 50.0768 19.5146C50.034 19.5557 49.9838 19.5879 49.9287 19.6094C49.874 19.631 49.8148 19.6414 49.7557 19.64C49.6503 19.6466 49.5464 19.6148 49.4624 19.5508C49.3168 19.3881 49.1373 19.2593 48.936 19.1736C48.7352 19.0878 48.5179 19.0473 48.2992 19.0547C47.7127 19.0547 47.2107 19.3672 47.2057 19.8782C47.2007 20.3891 47.8668 20.5974 48.6323 20.7611C49.5519 21.0091 50.4665 21.4357 50.4665 22.5271C50.4665 23.6184 49.4723 24.4567 48.2793 24.4567C47.8552 24.4629 47.4371 24.3553 47.069 24.1449C46.7008 23.9347 46.3961 23.6294 46.1867 23.2612Z" fill="#54535B"/>
<path d="M51.386 23.921V18.6281C51.386 18.4965 51.4382 18.3704 51.5316 18.2773C51.6246 18.1843 51.7513 18.132 51.8831 18.132H54.5027C54.6344 18.132 54.7607 18.1843 54.8541 18.2773C54.9471 18.3704 54.9998 18.4965 54.9998 18.6281C54.9998 18.7597 54.9471 18.8858 54.8541 18.9789C54.7607 19.0719 54.6344 19.1242 54.5027 19.1242H52.3702V20.8157H53.931C54.0344 20.8457 54.1249 20.9084 54.1895 20.9943C54.2541 21.0801 54.2889 21.1846 54.2889 21.2919C54.2889 21.3992 54.2541 21.5037 54.1895 21.5895C54.1249 21.6754 54.0344 21.738 53.931 21.7681H52.3901V23.4448H54.5226C54.6543 23.4448 54.7805 23.497 54.874 23.59C54.967 23.6831 55.0196 23.8093 55.0196 23.9408C55.0196 24.0666 54.9724 24.1877 54.8864 24.2799C54.8004 24.3719 54.6831 24.4281 54.5574 24.4369H51.8781C51.8115 24.4363 51.7459 24.4223 51.6847 24.3958C51.6236 24.3694 51.5684 24.3309 51.5227 24.2829C51.4764 24.2348 51.4407 24.1779 51.4173 24.1158C51.3939 24.0536 51.383 23.9873 51.386 23.921Z" fill="#54535B"/>
<path d="M55.333 23.9458C55.332 23.8685 55.3489 23.7921 55.3827 23.7225L57.6842 18.4198C57.722 18.3317 57.7841 18.2562 57.8631 18.2025C57.9427 18.1488 58.0356 18.1192 58.1316 18.1172C58.2265 18.1168 58.3185 18.1451 58.397 18.1982C58.475 18.2513 58.5352 18.3269 58.569 18.4148L60.8456 23.7027C60.8769 23.7731 60.8938 23.849 60.8953 23.9259C60.8958 23.9896 60.8829 24.0525 60.8571 24.1109C60.8317 24.1692 60.7949 24.2217 60.7482 24.2651C60.7015 24.3084 60.6463 24.3416 60.5861 24.3626C60.526 24.3837 60.4619 24.3921 60.3982 24.3872C60.3038 24.3861 60.2113 24.358 60.1318 24.3061C60.0528 24.2543 59.9901 24.1808 59.9509 24.0946L59.3345 22.6411H56.8491L56.2476 24.0896C56.1994 24.1835 56.1219 24.2595 56.0269 24.3064C55.932 24.3533 55.8246 24.3687 55.7202 24.3505C55.6158 24.3322 55.5204 24.2811 55.4468 24.2048C55.3738 24.1284 55.327 24.0307 55.3131 23.9259L55.333 23.9458ZM58.9418 21.6887L58.1067 19.7045L57.2766 21.6887H58.9418Z" fill="#54535B"/>
<path d="M61.6357 23.9259V18.6182C61.6357 18.4866 61.6879 18.3605 61.7808 18.2674C61.8743 18.1744 62.0005 18.1221 62.1327 18.1221H63.7781C64.0246 18.1189 64.2697 18.1644 64.4984 18.256C64.7275 18.3476 64.9358 18.4837 65.1122 18.6561C65.2882 18.8286 65.4284 19.0341 65.5243 19.2609C65.6203 19.4877 65.6705 19.7312 65.672 19.9774C65.6725 20.3601 65.5532 20.7334 65.33 21.0448C65.1073 21.3563 64.7921 21.5901 64.4293 21.7136L65.5725 23.6878C65.6153 23.7579 65.6377 23.8387 65.6372 23.921C65.6372 24.0525 65.5845 24.1787 65.4915 24.2717C65.3981 24.3648 65.2718 24.417 65.1401 24.417C65.0541 24.4157 64.9701 24.3921 64.896 24.3486C64.822 24.3052 64.7603 24.2433 64.7176 24.169L63.3506 21.8475H62.6V23.9259C62.6 24.0575 62.5473 24.1837 62.4544 24.2767C62.3609 24.3698 62.2346 24.422 62.1029 24.422C61.9707 24.422 61.8444 24.3698 61.751 24.2767C61.658 24.1837 61.6058 24.0575 61.6058 23.9259H61.6357ZM63.7731 20.8603C64.0102 20.8579 64.2369 20.7642 64.4064 20.5988C64.5759 20.4333 64.6748 20.2089 64.6828 19.9724C64.6798 19.8554 64.6544 19.74 64.6067 19.6329C64.5595 19.5259 64.4914 19.4292 64.4064 19.3485C64.3214 19.2678 64.221 19.2047 64.1116 19.1628C64.0018 19.1209 63.885 19.101 63.7681 19.1043H62.6149V20.8603H63.7731Z" fill="#54535B"/>
<path d="M66.2886 21.2869C66.2856 20.6563 66.471 20.0392 66.821 19.5141C67.1709 18.9891 67.6695 18.5799 68.2536 18.3388C68.8376 18.0978 69.4799 18.0357 70.0992 18.1606C70.7191 18.2854 71.2873 18.5915 71.7316 19.0398C71.7774 19.083 71.8142 19.1354 71.839 19.1934C71.8639 19.2515 71.8763 19.314 71.8758 19.3771C71.8718 19.4713 71.841 19.5624 71.7868 19.6397C71.7331 19.7171 71.6581 19.7776 71.5711 19.814C71.4841 19.8504 71.3882 19.8613 71.2952 19.8455C71.2023 19.8296 71.1153 19.7876 71.0457 19.7244C70.736 19.4161 70.3418 19.2064 69.9128 19.1216C69.4838 19.0368 69.0395 19.0808 68.6353 19.248C68.2317 19.4152 67.8862 19.6981 67.6437 20.061C67.4006 20.4239 67.2708 20.8506 67.2708 21.2869C67.2708 21.7233 67.4006 22.1499 67.6437 22.5128C67.8862 22.8757 68.2317 23.1587 68.6353 23.3259C69.0395 23.4931 69.4838 23.5371 69.9128 23.4523C70.3418 23.3675 70.736 23.1577 71.0457 22.8495C71.1381 22.7627 71.2609 22.7147 71.3887 22.7156C71.4548 22.7112 71.5214 22.721 71.5835 22.7444C71.6461 22.7677 71.7028 22.8041 71.7495 22.8511C71.7968 22.8981 71.8331 22.9545 71.8564 23.0167C71.8803 23.0789 71.8897 23.1453 71.8857 23.2116C71.8847 23.3393 71.835 23.4619 71.7466 23.5539C71.3022 24.0002 70.7345 24.3047 70.1166 24.4287C69.4988 24.5527 68.8575 24.4906 68.2749 24.2504C67.6919 24.0101 67.1943 23.6025 66.8439 23.0794C66.4939 22.5561 66.3075 21.9409 66.3085 21.3117L66.2886 21.2869Z" fill="#54535B"/>
<path d="M72.7312 23.9259V18.6182C72.7312 18.4866 72.7839 18.3605 72.8768 18.2674C72.9703 18.1744 73.0966 18.1221 73.2283 18.1221C73.3605 18.1221 73.4868 18.1744 73.5797 18.2674C73.6732 18.3605 73.7254 18.4866 73.7254 18.6182V20.7958H76.4046V18.6182C76.4046 18.4866 76.4573 18.3605 76.5503 18.2674C76.6437 18.1744 76.77 18.1221 76.9017 18.1221C77.0339 18.1221 77.1602 18.1744 77.2531 18.2674C77.3466 18.3605 77.3988 18.4866 77.3988 18.6182V23.9259C77.3988 24.0575 77.3466 24.1837 77.2531 24.2767C77.1602 24.3697 77.0339 24.422 76.9017 24.422C76.77 24.422 76.6437 24.3697 76.5503 24.2767C76.4573 24.1837 76.4046 24.0575 76.4046 23.9259V21.7731H73.7254V23.9259C73.7254 24.0575 73.6732 24.1837 73.5797 24.2767C73.4868 24.3697 73.3605 24.422 73.2283 24.422C73.0966 24.422 72.9703 24.3697 72.8768 24.2767C72.7839 24.1837 72.7312 24.0575 72.7312 23.9259Z" fill="#54535B"/>
<path d="M19.6727 33.4857C16.2229 34.4826 12.7682 33.4857 9.4875 31.3674C3.72634 27.6291 2.46874 20.4019 5.67986 14.4208C9.06498 8.14554 16.6156 6.39106 22.6949 10.0645C23.9282 10.8038 25.0275 11.7476 25.9458 12.8557C26.5789 13.6351 27.4189 14.219 28.3688 14.54C29.3188 14.8611 30.3399 14.9061 31.3143 14.67L31.4833 14.6251C32.0045 14.4974 32.4897 14.2521 32.902 13.9078C33.3142 13.5636 33.6427 13.1295 33.8622 12.6387C34.0818 12.1478 34.1867 11.6132 34.169 11.0756C34.1513 10.5379 34.0114 10.0114 33.7599 9.53615C32.217 6.64641 29.9157 4.23461 27.1046 2.56156C24.2935 0.888516 21.0798 0.017901 17.811 0.0438688C14.5421 0.0698367 11.3426 0.991397 8.55831 2.7089C5.77401 4.42639 3.511 6.87444 2.01397 9.78836C0.516937 12.7022 -0.157139 15.9711 0.0646289 19.2413C0.286401 22.5116 1.39559 25.6589 3.27223 28.3427C5.14888 31.0266 7.72157 33.1449 10.7121 34.4687C13.7026 35.7924 16.9971 36.2712 20.2393 35.8532C20.4001 35.8295 20.5542 35.773 20.6923 35.6875C20.8305 35.6018 20.9498 35.4888 21.0429 35.3554C21.136 35.2219 21.2009 35.0708 21.2337 34.9113C21.2665 34.7518 21.2664 34.5872 21.2335 34.4277C21.1985 34.2599 21.1293 34.1012 21.0303 33.9613C20.9313 33.8215 20.8045 33.7038 20.658 33.6153C20.5115 33.5269 20.3484 33.4698 20.1789 33.4475C20.0093 33.4251 19.837 33.4382 19.6727 33.4857Z" fill="url(#paint0_linear_2168_631)"/>
<path style="mix-blend-mode:multiply" opacity="0.6" d="M19.6727 33.4857C16.2229 34.4826 12.7682 33.4857 9.4875 31.3674C3.72634 27.6291 2.46874 20.4019 5.67986 14.4208C9.06498 8.14554 16.6156 6.39106 22.6949 10.0645C23.9282 10.8038 25.0275 11.7476 25.9458 12.8557C26.5789 13.6351 27.4189 14.219 28.3688 14.54C29.3188 14.8611 30.3399 14.9061 31.3143 14.67L31.4833 14.6251C32.0045 14.4974 32.4897 14.2521 32.902 13.9078C33.3142 13.5636 33.6427 13.1295 33.8622 12.6387C34.0818 12.1478 34.1867 11.6132 34.169 11.0756C34.1513 10.5379 34.0114 10.0114 33.7599 9.53615C32.217 6.64641 29.9157 4.23461 27.1046 2.56156C24.2935 0.888516 21.0798 0.017901 17.811 0.0438688C14.5421 0.0698367 11.3426 0.991397 8.55831 2.7089C5.77401 4.42639 3.511 6.87444 2.01397 9.78836C0.516937 12.7022 -0.157139 15.9711 0.0646289 19.2413C0.286401 22.5116 1.39559 25.6589 3.27223 28.3427C5.14888 31.0266 7.72157 33.1449 10.7121 34.4687C13.7026 35.7924 16.9971 36.2712 20.2393 35.8532C20.4001 35.8295 20.5542 35.773 20.6923 35.6875C20.8305 35.6018 20.9498 35.4888 21.0429 35.3554C21.136 35.2219 21.2009 35.0708 21.2337 34.9113C21.2665 34.7518 21.2664 34.5872 21.2335 34.4277C21.1985 34.2599 21.1293 34.1012 21.0303 33.9613C20.9313 33.8215 20.8045 33.7038 20.658 33.6153C20.5115 33.5269 20.3484 33.4698 20.1789 33.4475C20.0093 33.4251 19.837 33.4382 19.6727 33.4857Z" fill="url(#paint1_linear_2168_631)"/>
<path d="M5.03818 14.5204C6.80192 11.5946 9.64721 9.48605 12.9543 8.65422C16.2614 7.82244 19.7623 8.33468 22.6945 10.0794C23.9278 10.8188 25.027 11.7625 25.9454 12.8706C26.5785 13.65 27.4184 14.2339 28.3684 14.555C29.3183 14.876 30.3395 14.9211 31.3139 14.6849L31.4829 14.6401C32.0061 14.513 32.4934 14.2674 32.9072 13.9221C33.3211 13.5769 33.6506 13.1411 33.8704 12.6483C34.0902 12.1555 34.1945 11.6188 34.1753 11.0793C34.1561 10.5398 34.0138 10.0119 33.7595 9.53614C32.2958 6.79553 30.1484 4.48229 27.5269 2.82233C24.9054 1.16238 21.8994 0.212421 18.8025 0.065213C15.7055 -0.0819946 12.6234 0.578578 9.85708 1.98243C7.09073 3.3863 4.73471 5.48546 3.01906 8.07495C1.3034 10.6645 0.286745 13.6559 0.068348 16.757C-0.150054 19.8581 0.437271 22.963 1.77297 25.7686C3.10867 28.5742 5.14709 30.9845 7.68921 32.7643C10.2314 34.544 13.1903 35.6324 16.2772 35.923C1.19576 33.2016 2.16507 19.2406 5.03818 14.5204Z" fill="url(#paint2_linear_2168_631)"/>
<path style="mix-blend-mode:multiply" opacity="0.6" d="M5.03818 14.5204C6.80192 11.5946 9.64721 9.48605 12.9543 8.65422C16.2614 7.82244 19.7623 8.33468 22.6945 10.0794C23.9278 10.8188 25.027 11.7625 25.9454 12.8706C26.5785 13.65 27.4184 14.2339 28.3684 14.555C29.3183 14.876 30.3395 14.9211 31.3139 14.6849L31.4829 14.6401C32.0061 14.513 32.4934 14.2674 32.9072 13.9221C33.3211 13.5769 33.6506 13.1411 33.8704 12.6483C34.0902 12.1555 34.1945 11.6188 34.1753 11.0793C34.1561 10.5398 34.0138 10.0119 33.7595 9.53614C32.2958 6.79553 30.1484 4.48229 27.5269 2.82233C24.9054 1.16238 21.8994 0.212421 18.8025 0.065213C15.7055 -0.0819946 12.6234 0.578578 9.85708 1.98243C7.09073 3.3863 4.73471 5.48546 3.01906 8.07495C1.3034 10.6645 0.286745 13.6559 0.068348 16.757C-0.150054 19.8581 0.437271 22.963 1.77297 25.7686C3.10867 28.5742 5.14709 30.9845 7.68921 32.7643C10.2314 34.544 13.1903 35.6324 16.2772 35.923C1.19576 33.2016 2.16507 19.2406 5.03818 14.5204Z" fill="url(#paint3_linear_2168_631)"/>
<path d="M13.4391 5.77321C20.8953 5.52898 24.4345 9.83541 26.2688 12.6565C26.7833 13.4908 27.5507 14.1379 28.4587 14.503C29.3667 14.868 30.3673 14.9319 31.3141 14.6851L31.4831 14.6403C32.0064 14.5132 32.4937 14.2676 32.9075 13.9223C33.3214 13.5771 33.6509 13.1413 33.8707 12.6485C34.0905 12.1558 34.1948 11.619 34.1756 11.0795C34.1563 10.5401 34.0141 10.0122 33.7598 9.53635C31.8539 5.94307 28.7885 3.10452 25.0648 1.48491C21.3412 -0.134712 17.1797 -0.439553 13.2609 0.620231C9.34204 1.68002 5.89772 4.04171 3.49125 7.31909C1.08479 10.5965 -0.14148 14.5957 0.0129975 18.6626C-0.131156 11.231 5.96801 6.01744 13.4391 5.77321Z" fill="url(#paint4_linear_2168_631)"/>
<path d="M31.4831 13.9774L31.3141 14.0172C30.3674 14.264 29.3666 14.2001 28.4587 13.8351C27.5507 13.47 26.7833 12.8229 26.2687 11.9886C24.4345 9.17251 20.9052 4.86608 13.4391 5.10532C5.97294 5.34457 -0.13119 10.588 0.0179343 17.9947C0.0179343 17.89 0.0179343 17.7804 0.0179343 17.6757C0.0179343 18.0047 0.0179343 18.3336 0.0179343 18.6726C-0.126219 11.241 5.98288 6.02742 13.4391 5.78319C20.8953 5.53895 24.4345 9.83542 26.2687 12.6565C26.7833 13.4908 27.5507 14.1379 28.4587 14.503C29.3666 14.868 30.3674 14.9319 31.3141 14.6851L31.4831 14.6403C32.3014 14.4353 33.0193 13.9429 33.5064 13.2524C33.9935 12.5619 34.2174 11.7191 34.1375 10.8771C34.0698 11.6059 33.778 12.2956 33.3025 12.8509C32.827 13.4063 32.1913 13.7999 31.4831 13.9774Z" fill="url(#paint5_linear_2168_631)"/>
<path d="M24.8469 33.6105C24.8469 33.8678 24.7708 34.1193 24.6283 34.3333C24.4858 34.5472 24.2831 34.7139 24.046 34.8124C23.809 34.9109 23.5481 34.9366 23.2964 34.8864C23.0448 34.8362 22.8136 34.7123 22.6322 34.5304C22.4507 34.3484 22.3272 34.1167 22.2771 33.8643C22.2271 33.6119 22.2527 33.3504 22.351 33.1127C22.4491 32.875 22.6154 32.6718 22.8288 32.5289C23.0421 32.3859 23.293 32.3096 23.5496 32.3096C23.8936 32.3096 24.2236 32.4467 24.467 32.6907C24.7102 32.9346 24.8469 33.2655 24.8469 33.6105Z" fill="url(#paint6_linear_2168_631)"/>
<path d="M19.6724 33.4859C16.2226 34.4828 12.7679 33.4859 9.48718 31.3676C7.78876 30.2903 6.38928 28.8003 5.41858 27.0358C4.44793 25.2713 3.93753 23.2895 3.93479 21.2744C3.8651 23.3635 4.34076 25.4345 5.31464 27.2826C6.28847 29.1307 7.72677 30.6918 9.48718 31.8112C12.7679 33.9594 16.2226 34.9563 19.6724 33.9295C19.8382 33.8796 20.0127 33.8649 20.1846 33.8863C20.3565 33.9077 20.5221 33.9648 20.6707 34.0539C20.8195 34.1429 20.948 34.2621 21.0483 34.4038C21.1485 34.5454 21.2183 34.7064 21.2531 34.8765C21.2828 34.7252 21.2828 34.5694 21.2531 34.418C21.2172 34.2488 21.1466 34.089 21.0458 33.9486C20.945 33.8083 20.8161 33.6906 20.6674 33.6029C20.5187 33.5152 20.3535 33.4595 20.1822 33.4394C20.0108 33.4193 19.8372 33.4351 19.6724 33.4859Z" fill="url(#paint7_linear_2168_631)"/>
<path d="M27.5363 31.9956C27.5363 32.1841 27.4805 32.3684 27.376 32.525C27.2714 32.6817 27.1228 32.8037 26.9491 32.8756C26.7753 32.9475 26.5841 32.9661 26.3998 32.929C26.2155 32.8918 26.0464 32.8006 25.9138 32.667C25.7812 32.5333 25.6912 32.3632 25.6551 32.1783C25.619 31.9933 25.6385 31.8017 25.7111 31.6279C25.7838 31.4539 25.9063 31.3056 26.063 31.2016C26.2198 31.0976 26.4039 31.0426 26.5919 31.0436C26.7163 31.0436 26.8395 31.0683 26.9544 31.1162C27.0693 31.1641 27.1737 31.2343 27.2614 31.3228C27.3492 31.4112 27.4187 31.5162 27.4658 31.6317C27.513 31.7471 27.537 31.8708 27.5363 31.9956Z" fill="url(#paint8_linear_2168_631)"/>
<path d="M28.724 31.0436C29.0617 31.0436 29.3354 30.7691 29.3354 30.4305C29.3354 30.092 29.0617 29.8175 28.724 29.8175C28.3863 29.8175 28.1125 30.092 28.1125 30.4305C28.1125 30.7691 28.3863 31.0436 28.724 31.0436Z" fill="url(#paint9_linear_2168_631)"/>
<path d="M5.0384 14.5206C6.17294 12.6482 7.75937 11.0923 9.65146 9.99644C11.5435 8.90064 13.6803 8.30014 15.8648 8.25039C13.5923 8.20947 11.3488 8.76697 9.35838 9.8672C7.36792 10.9675 5.70012 12.572 4.52144 14.5206C1.71295 19.1261 0.723763 32.5389 14.7116 35.7089C15.2087 35.8036 15.7555 35.8783 16.2774 35.9232C1.19599 33.2018 2.1653 19.2408 5.0384 14.5206Z" fill="url(#paint10_linear_2168_631)"/>
<defs>
<linearGradient id="paint0_linear_2168_631" x1="-0.00174629" y1="18.0344" x2="34.1576" y2="18.0344" gradientUnits="userSpaceOnUse">
<stop stop-color="#FA71CD"/>
<stop offset="1" stop-color="#C471F5"/>
</linearGradient>
<linearGradient id="paint1_linear_2168_631" x1="1276.12" y1="914.424" x2="1302.62" y2="2292.23" gradientUnits="userSpaceOnUse">
<stop offset="0.11" stop-color="#666666"/>
<stop offset="0.29" stop-color="#7C7C7C" stop-opacity="0.85"/>
<stop offset="0.63" stop-color="#B7B7B7" stop-opacity="0.47"/>
<stop offset="1" stop-color="white" stop-opacity="0"/>
</linearGradient>
<linearGradient id="paint2_linear_2168_631" x1="18.7029" y1="6.23654" x2="13.9661" y2="28.2868" gradientUnits="userSpaceOnUse">
<stop stop-color="#764BA2"/>
<stop offset="1" stop-color="#667EEA"/>
</linearGradient>
<linearGradient id="paint3_linear_2168_631" x1="1910.58" y1="932.87" x2="663.23" y2="1464.32" gradientUnits="userSpaceOnUse">
<stop offset="0.11" stop-color="#666666"/>
<stop offset="0.29" stop-color="#7C7C7C" stop-opacity="0.85"/>
<stop offset="0.63" stop-color="#B7B7B7" stop-opacity="0.47"/>
<stop offset="1" stop-color="white" stop-opacity="0"/>
</linearGradient>
<linearGradient id="paint4_linear_2168_631" x1="-0.00191488" y1="9.3619" x2="34.1525" y2="9.3619" gradientUnits="userSpaceOnUse">
<stop stop-color="#4FACFE"/>
<stop offset="1" stop-color="#00F2FE"/>
</linearGradient>
<linearGradient id="paint5_linear_2168_631" x1="0.0030219" y1="11.879" x2="34.1524" y2="11.879" gradientUnits="userSpaceOnUse">
<stop stop-color="#00EDFF"/>
<stop offset="1" stop-color="#00F2FE" stop-opacity="0"/>
</linearGradient>
<linearGradient id="paint6_linear_2168_631" x1="154.637" y1="200.802" x2="151.194" y2="216.409" gradientUnits="userSpaceOnUse">
<stop stop-color="#FA71CD"/>
<stop offset="1" stop-color="#C471F5"/>
</linearGradient>
<linearGradient id="paint7_linear_2168_631" x1="9.78046" y1="27.759" x2="20.3994" y2="29.3554" gradientUnits="userSpaceOnUse">
<stop stop-color="#FF99F5"/>
<stop offset="0.99" stop-color="#C471F5" stop-opacity="0"/>
</linearGradient>
<linearGradient id="paint8_linear_2168_631" x1="133.549" y1="149.225" x2="132.538" y2="157.012" gradientUnits="userSpaceOnUse">
<stop stop-color="#FA71CD"/>
<stop offset="1" stop-color="#C471F5"/>
</linearGradient>
<linearGradient id="paint9_linear_2168_631" x1="102.802" y1="103.177" x2="102.151" y2="106.487" gradientUnits="userSpaceOnUse">
<stop stop-color="#FA71CD"/>
<stop offset="1" stop-color="#C471F5"/>
</linearGradient>
<linearGradient id="paint10_linear_2168_631" x1="8.80627" y1="30.9888" x2="13.5929" y2="10.4542" gradientUnits="userSpaceOnUse">
<stop stop-color="#90A8FC"/>
<stop offset="1" stop-color="#667EEA" stop-opacity="0"/>
</linearGradient>
</defs>
</svg>
