<svg width="730" height="410" viewBox="0 0 730 410" fill="none" xmlns="http://www.w3.org/2000/svg">
<path d="M350.992 257.766H345.106V242.049H350.763C354.048 242.049 355.737 243.872 355.737 246.058C355.752 246.878 355.491 247.68 354.994 248.333C354.497 248.986 353.794 249.452 352.999 249.657C353.88 249.854 354.668 250.345 355.232 251.049C355.796 251.753 356.103 252.628 356.102 253.529C356.102 255.716 354.231 257.766 350.992 257.766ZM350.581 243.735H347.159V248.837H350.627C352.543 248.837 353.638 247.881 353.638 246.286C353.638 244.692 352.588 243.735 350.581 243.735ZM350.581 250.523H347.022V256.081H350.672C352.68 256.081 353.912 255.078 353.912 253.347C353.912 251.616 352.725 250.523 350.718 250.523H350.581Z" fill="#6C6C75"/>
<path d="M370.2 242.049H372.253V251.981C372.253 254.896 373.804 256.126 376.131 256.126C378.458 256.126 380.009 254.896 380.009 251.981V242.049H382.062V251.981C382.062 253.551 381.437 255.058 380.325 256.168C379.213 257.279 377.704 257.903 376.131 257.903C374.558 257.903 373.049 257.279 371.937 256.168C370.825 255.058 370.2 253.551 370.2 251.981V242.049Z" fill="#6C6C75"/>
<path d="M401.82 257.948C398.626 257.948 396.391 256.172 396.345 253.393H398.535C398.574 253.781 398.691 254.157 398.879 254.499C399.067 254.842 399.321 255.143 399.628 255.385C399.934 255.627 400.286 255.805 400.662 255.909C401.039 256.013 401.433 256.04 401.82 255.99C403.782 255.99 404.968 254.896 404.968 253.393C404.968 249.156 396.436 251.844 396.436 246.013C396.436 243.416 398.535 241.685 401.683 241.685C402.29 241.596 402.908 241.629 403.502 241.784C404.095 241.939 404.651 242.211 405.137 242.586C405.623 242.96 406.028 243.428 406.328 243.962C406.628 244.496 406.817 245.085 406.884 245.694H404.649C404.506 245.007 404.116 244.396 403.553 243.976C402.99 243.556 402.292 243.357 401.592 243.416C401.219 243.358 400.838 243.379 400.474 243.48C400.111 243.58 399.773 243.757 399.483 243.999C399.194 244.241 398.96 244.541 398.796 244.881C398.632 245.22 398.543 245.591 398.535 245.967C398.535 250.022 407.021 247.471 407.021 253.302C407.041 253.965 406.915 254.625 406.653 255.235C406.391 255.845 405.998 256.39 405.503 256.833C405.007 257.276 404.421 257.605 403.785 257.797C403.149 257.99 402.478 258.042 401.82 257.948Z" fill="#6C6C75"/>
<path d="M428.463 242.049C430.004 241.952 431.536 242.339 432.846 243.157C434.155 243.974 435.175 245.179 435.763 246.605H433.436C433.034 245.674 432.353 244.89 431.488 244.36C430.622 243.83 429.613 243.58 428.6 243.644C426.942 243.644 425.352 244.301 424.18 245.472C423.008 246.642 422.349 248.23 422.349 249.885C422.349 251.54 423.008 253.128 424.18 254.298C425.352 255.469 426.942 256.126 428.6 256.126C429.607 256.187 430.609 255.941 431.473 255.421C432.337 254.9 433.021 254.129 433.436 253.211H435.9C435.312 254.636 434.292 255.842 432.983 256.659C431.673 257.476 430.141 257.863 428.6 257.766C426.47 257.766 424.428 256.921 422.922 255.418C421.416 253.914 420.57 251.875 420.57 249.748C420.57 247.622 421.416 245.583 422.922 244.079C424.428 242.575 426.47 241.731 428.6 241.731L428.463 242.049Z" fill="#6C6C75"/>
<path d="M459.446 254.258H452.556L451.279 257.766H449.134L454.838 242.049H457.21L462.868 257.675H460.814L459.446 254.258ZM455.978 244.646L453.149 252.618H458.853L455.978 244.646Z" fill="#6C6C75"/>
<path d="M481.664 257.948C478.47 257.948 476.234 256.172 476.189 253.393H478.379C478.418 253.781 478.535 254.157 478.723 254.499C478.91 254.842 479.165 255.143 479.471 255.385C479.778 255.627 480.129 255.805 480.506 255.909C480.883 256.013 481.276 256.04 481.664 255.99C483.626 255.99 484.812 254.896 484.812 253.393C484.812 249.156 476.28 251.844 476.28 246.013C476.28 243.416 478.379 241.685 481.527 241.685C482.134 241.596 482.752 241.629 483.346 241.784C483.939 241.939 484.495 242.211 484.981 242.586C485.466 242.96 485.871 243.428 486.171 243.962C486.472 244.496 486.661 245.085 486.728 245.694H484.447C484.324 245.006 483.946 244.389 483.387 243.967C482.829 243.545 482.132 243.348 481.435 243.416C479.702 243.416 478.379 244.282 478.379 245.967C478.379 250.022 486.865 247.471 486.865 253.302C486.885 253.965 486.759 254.625 486.497 255.235C486.235 255.845 485.842 256.39 485.347 256.833C484.851 257.276 484.265 257.605 483.629 257.797C482.993 257.99 482.322 258.042 481.664 257.948Z" fill="#6C6C75"/>
<path d="M530.94 242.049V257.766H528.887L520.629 245.238V257.766H518.53V242.049H520.629L528.887 254.532V242.049H530.94Z" fill="#6C6C75"/>
<path d="M552.884 257.948C551.28 257.985 549.701 257.543 548.349 256.679C546.997 255.815 545.934 254.569 545.295 253.099C544.655 251.629 544.469 250.003 544.76 248.427C545.05 246.851 545.805 245.397 546.927 244.251C548.048 243.105 549.487 242.319 551.058 241.993C552.629 241.666 554.262 241.815 555.749 242.42C557.235 243.024 558.507 244.057 559.403 245.387C560.298 246.717 560.777 248.283 560.777 249.885C560.821 250.94 560.648 251.993 560.269 252.979C559.891 253.965 559.314 254.863 558.575 255.619C557.835 256.374 556.949 256.97 555.971 257.371C554.992 257.771 553.942 257.968 552.884 257.948ZM552.884 256.126C554.136 256.218 555.386 255.931 556.472 255.303C557.558 254.675 558.43 253.735 558.974 252.606C559.518 251.477 559.708 250.21 559.521 248.971C559.334 247.732 558.778 246.578 557.925 245.659C557.071 244.74 555.961 244.099 554.738 243.819C553.514 243.538 552.235 243.633 551.066 244.089C549.897 244.544 548.893 245.341 548.183 246.375C547.474 247.409 547.093 248.632 547.09 249.885C547.02 250.684 547.118 251.488 547.378 252.247C547.638 253.005 548.055 253.701 548.601 254.289C549.147 254.877 549.81 255.344 550.548 255.661C551.285 255.977 552.081 256.136 552.884 256.126Z" fill="#6C6C75"/>
<path d="M606.538 246.605H604.074C603.645 245.71 602.963 244.961 602.111 244.451C601.259 243.941 600.276 243.692 599.283 243.735C597.65 243.735 596.083 244.383 594.928 245.536C593.773 246.69 593.124 248.254 593.124 249.885C593.124 251.516 593.773 253.08 594.928 254.234C596.083 255.387 597.65 256.035 599.283 256.035C600.658 256.098 602.003 255.625 603.033 254.715C604.064 253.805 604.699 252.53 604.804 251.161H598.508V249.475H606.812V251.07C606.65 252.995 605.766 254.788 604.336 256.089C602.906 257.39 601.036 258.103 599.101 258.085C596.971 258.085 594.929 257.24 593.423 255.737C591.917 254.233 591.071 252.194 591.071 250.067C591.071 247.941 591.917 245.901 593.423 244.398C594.929 242.894 596.971 242.05 599.101 242.05C600.661 241.944 602.215 242.326 603.548 243.142C604.88 243.958 605.926 245.169 606.538 246.605Z" fill="#6C6C75"/>
<path d="M621.003 242.049H623.057V257.766H621.003V242.049Z" fill="#6C6C75"/>
<path d="M636.879 242.049H647.555V243.735H643.312V257.766H641.259V243.735H636.924L636.879 242.049Z" fill="#6C6C75"/>
<path d="M671.463 250.659H663.433V257.766H661.562V242.049H663.616V248.974H671.646V242.049H673.699V257.766H671.646L671.463 250.659Z" fill="#6C6C75"/>
<path d="M688.251 242.049H690.304V251.981C690.218 252.525 690.257 253.082 690.42 253.608C690.583 254.135 690.865 254.617 691.245 255.018C691.624 255.418 692.09 255.726 692.607 255.919C693.124 256.111 693.679 256.182 694.228 256.126C696.509 256.126 698.061 254.896 698.061 251.981V242.049H700.114V251.981C700.114 253.551 699.489 255.058 698.377 256.168C697.264 257.279 695.756 257.903 694.183 257.903C692.609 257.903 691.101 257.279 689.989 256.168C688.876 255.058 688.251 253.551 688.251 251.981V242.049Z" fill="#6C6C75"/>
<path d="M720.875 257.766H714.989V242.049H720.647C723.977 242.049 725.62 243.872 725.62 246.058C725.636 246.878 725.374 247.68 724.877 248.333C724.38 248.986 723.678 249.452 722.882 249.657C723.767 249.846 724.56 250.335 725.125 251.041C725.691 251.747 725.994 252.626 725.985 253.529C725.848 255.716 723.977 257.766 720.875 257.766ZM720.464 243.735H717.042V248.837H720.51C722.426 248.837 723.521 247.881 723.521 246.286C723.521 244.692 722.335 243.735 720.327 243.735H720.464ZM720.464 250.523H716.86V256.081H720.51C722.563 256.081 723.749 255.078 723.749 253.347C723.749 251.616 722.517 250.523 720.51 250.523H720.464Z" fill="#6C6C75"/>
<path d="M728.449 232.346H131.4C130.988 232.346 130.594 232.509 130.303 232.8C130.012 233.09 129.849 233.484 129.849 233.895C129.848 234.31 130.01 234.709 130.3 235.007C130.59 235.304 130.984 235.478 131.4 235.489H728.449C728.864 235.478 729.259 235.304 729.549 235.007C729.838 234.709 730 234.31 730 233.895C730 233.484 729.837 233.09 729.546 232.8C729.255 232.509 728.86 232.346 728.449 232.346Z" fill="#D3D3DD"/>
<path d="M147.096 219.727V175.493H135.142C133.932 175.493 132.771 175.013 131.916 174.159C131.06 173.304 130.579 172.146 130.579 170.937C130.579 169.729 131.06 168.57 131.916 167.716C132.771 166.862 133.932 166.382 135.142 166.382H167.901C169.111 166.382 170.271 166.862 171.127 167.716C171.982 168.57 172.463 169.729 172.463 170.937C172.463 172.146 171.982 173.304 171.127 174.159C170.271 175.013 169.111 175.493 167.901 175.493H155.901V219.727C155.901 220.936 155.42 222.094 154.565 222.949C153.709 223.803 152.549 224.283 151.339 224.283C150.755 224.278 150.18 224.154 149.646 223.919C149.112 223.684 148.632 223.343 148.235 222.917C147.838 222.491 147.532 221.988 147.336 221.439C147.14 220.891 147.058 220.308 147.096 219.727Z" fill="#54535B"/>
<path d="M179.532 219.727V170.983C179.532 169.775 180.013 168.616 180.869 167.762C181.724 166.907 182.885 166.427 184.095 166.427C185.305 166.427 186.465 166.907 187.321 167.762C188.177 168.616 188.657 169.775 188.657 170.983V190.982H213.067V170.983C213.067 169.775 213.547 168.616 214.403 167.762C215.259 166.907 216.419 166.427 217.629 166.427C218.839 166.427 220 166.907 220.855 167.762C221.711 168.616 222.192 169.775 222.192 170.983V219.727C222.192 220.936 221.711 222.094 220.855 222.949C220 223.803 218.839 224.283 217.629 224.283C216.419 224.283 215.259 223.803 214.403 222.949C213.547 222.094 213.067 220.936 213.067 219.727V199.956H188.475V219.727C188.475 220.936 187.994 222.094 187.139 222.949C186.283 223.803 185.122 224.283 183.912 224.283C182.702 224.283 181.542 223.803 180.686 222.949C179.831 222.094 179.35 220.936 179.35 219.727H179.532Z" fill="#54535B"/>
<path d="M233.739 219.682V171.074C233.739 169.866 234.22 168.707 235.075 167.853C235.931 166.998 237.091 166.518 238.301 166.518H262.346C263.556 166.518 264.716 166.998 265.572 167.853C266.428 168.707 266.908 169.866 266.908 171.074C266.908 172.282 266.428 173.441 265.572 174.295C264.716 175.15 263.556 175.63 262.346 175.63H242.727V191.164H257.008C257.955 191.44 258.788 192.015 259.38 192.804C259.973 193.593 260.293 194.552 260.293 195.537C260.293 196.523 259.973 197.482 259.38 198.271C258.788 199.059 257.955 199.635 257.008 199.911H242.727V215.308H262.3C263.51 215.308 264.671 215.788 265.526 216.643C266.382 217.497 266.863 218.656 266.863 219.864C266.866 221.019 266.429 222.132 265.641 222.978C264.854 223.823 263.773 224.339 262.62 224.42H237.891C236.721 224.315 235.637 223.764 234.863 222.882C234.09 221.999 233.687 220.853 233.739 219.682Z" fill="#54535B"/>
<path d="M291.18 195.492C291.154 189.7 292.855 184.033 296.068 179.211C299.28 174.389 303.858 170.631 309.218 168.417C314.577 166.204 320.476 165.634 326.161 166.78C331.846 167.927 337.061 170.738 341.14 174.855C341.563 175.252 341.899 175.732 342.127 176.265C342.354 176.799 342.469 177.373 342.463 177.953C342.463 179.161 341.982 180.32 341.127 181.174C340.271 182.028 339.111 182.508 337.9 182.508C337.332 182.509 336.768 182.396 336.244 182.177C335.719 181.958 335.243 181.637 334.844 181.233C332.929 179.336 330.657 177.836 328.159 176.819C325.661 175.803 322.987 175.29 320.289 175.311C315.077 175.558 310.16 177.799 306.559 181.569C302.957 185.34 300.948 190.35 300.948 195.56C300.948 200.77 302.957 205.78 306.559 209.551C310.16 213.321 315.077 215.563 320.289 215.81C323.94 216.135 327.595 215.225 330.665 213.225C333.736 211.225 336.043 208.253 337.216 204.785H327.817C326.607 204.785 325.447 204.305 324.591 203.451C323.736 202.596 323.255 201.438 323.255 200.23C323.255 199.021 323.736 197.863 324.591 197.008C325.447 196.154 326.607 195.674 327.817 195.674H342.6C343.81 195.674 344.97 196.154 345.826 197.008C346.682 197.863 347.162 199.021 347.162 200.23C346.762 206.985 343.731 213.315 338.718 217.869C333.706 222.423 327.108 224.84 320.335 224.602C316.505 224.608 312.711 223.859 309.171 222.398C305.631 220.937 302.415 218.793 299.706 216.089C296.998 213.385 294.85 210.173 293.387 206.639C291.924 203.104 291.174 199.316 291.18 195.492Z" fill="#54535B"/>
<path d="M355.875 219.727V170.983C355.875 169.775 356.356 168.616 357.211 167.762C358.067 166.907 359.227 166.427 360.438 166.427C361.648 166.427 362.808 166.907 363.664 167.762C364.519 168.616 365 169.775 365 170.983V219.727C365 220.936 364.519 222.094 363.664 222.949C362.808 223.803 361.648 224.283 360.438 224.283C359.227 224.283 358.067 223.803 357.211 222.949C356.356 222.094 355.875 220.936 355.875 219.727Z" fill="#54535B"/>
<path d="M387.811 219.727V175.493H375.903C374.693 175.493 373.532 175.013 372.677 174.159C371.821 173.304 371.34 172.146 371.34 170.937C371.34 169.729 371.821 168.57 372.677 167.716C373.532 166.862 374.693 166.382 375.903 166.382H408.707C409.917 166.382 411.078 166.862 411.933 167.716C412.789 168.57 413.27 169.729 413.27 170.937C413.27 172.146 412.789 173.304 411.933 174.159C411.078 175.013 409.917 175.493 408.707 175.493H396.662V219.727C396.662 220.936 396.181 222.094 395.326 222.949C394.47 223.803 393.31 224.283 392.1 224.283C391.511 224.291 390.927 224.176 390.384 223.947C389.842 223.717 389.354 223.377 388.95 222.948C388.547 222.52 388.237 222.012 388.041 221.458C387.845 220.903 387.767 220.314 387.811 219.727Z" fill="#54535B"/>
<path d="M438 213.623C437.626 212.855 437.424 212.016 437.407 211.163C437.488 210.011 438.005 208.932 438.852 208.146C439.699 207.359 440.813 206.923 441.97 206.926C442.833 206.964 443.671 207.229 444.4 207.692C445.129 208.156 445.723 208.803 446.122 209.568C447.418 211.556 449.211 213.172 451.323 214.259C453.435 215.345 455.793 215.864 458.167 215.764C463.459 215.764 468.98 212.803 468.98 207.518C468.98 202.234 463.368 200.731 458.258 199.409C447.126 197.314 438.548 192.531 438.548 182.827C438.699 180.496 439.308 178.218 440.342 176.123C441.376 174.027 442.813 172.156 444.571 170.616C446.33 169.076 448.376 167.897 450.591 167.147C452.806 166.397 455.148 166.09 457.482 166.245C460.793 166.086 464.091 166.767 467.067 168.225C470.043 169.683 472.6 171.87 474.501 174.582C474.804 175.108 474.961 175.706 474.957 176.313C474.951 176.855 474.837 177.391 474.623 177.889C474.408 178.387 474.096 178.838 473.706 179.215C473.315 179.592 472.854 179.888 472.348 180.086C471.842 180.284 471.302 180.379 470.759 180.367C469.792 180.427 468.836 180.136 468.067 179.547C466.731 178.053 465.082 176.87 463.237 176.083C461.392 175.296 459.396 174.923 457.391 174.992C452.007 174.992 447.399 177.862 447.354 182.554C447.308 187.246 453.422 189.159 460.448 190.663C468.889 192.941 477.284 196.858 477.284 206.881C477.284 216.903 468.159 224.602 457.209 224.602C453.315 224.659 449.478 223.67 446.099 221.739C442.719 219.807 439.922 217.004 438 213.623Z" fill="#54535B"/>
<path d="M485.723 219.682V171.074C485.723 169.866 486.203 168.707 487.059 167.853C487.915 166.998 489.075 166.518 490.285 166.518H514.33C515.54 166.518 516.7 166.998 517.556 167.853C518.411 168.707 518.892 169.866 518.892 171.074C518.892 172.282 518.411 173.441 517.556 174.295C516.7 175.15 515.54 175.63 514.33 175.63H494.757V191.164H509.083C510.03 191.44 510.863 192.015 511.455 192.804C512.048 193.593 512.368 194.552 512.368 195.537C512.368 196.523 512.048 197.482 511.455 198.271C510.863 199.059 510.03 199.635 509.083 199.911H494.939V215.308H514.512C515.722 215.308 516.883 215.788 517.738 216.643C518.594 217.497 519.075 218.656 519.075 219.864C519.077 221.019 518.641 222.132 517.853 222.978C517.065 223.823 515.985 224.339 514.832 224.42H490.24C489.629 224.414 489.025 224.286 488.465 224.043C487.904 223.8 487.398 223.447 486.977 223.005C486.556 222.563 486.228 222.041 486.012 221.471C485.797 220.9 485.698 220.291 485.723 219.682Z" fill="#54535B"/>
<path d="M521.952 219.91C521.942 219.2 522.098 218.498 522.408 217.86L543.532 169.161C543.875 168.351 544.445 167.658 545.174 167.165C545.903 166.672 546.759 166.4 547.638 166.382C548.506 166.378 549.354 166.638 550.071 167.126C550.788 167.614 551.34 168.308 551.653 169.115L572.55 217.677C572.835 218.324 572.99 219.021 573.006 219.727C573.008 220.312 572.888 220.89 572.655 221.426C572.422 221.962 572.081 222.444 571.652 222.842C571.224 223.24 570.718 223.545 570.166 223.738C569.613 223.931 569.027 224.008 568.443 223.964C567.574 223.953 566.725 223.695 565.997 223.219C565.27 222.742 564.694 222.068 564.337 221.276L558.68 207.928H535.867L530.347 221.231C529.9 222.093 529.19 222.79 528.319 223.221C527.448 223.652 526.462 223.794 525.505 223.626C524.547 223.458 523.669 222.99 522.997 222.288C522.325 221.587 521.895 220.69 521.769 219.727L521.952 219.91ZM555.075 199.182L547.41 180.96L539.791 199.182H555.075Z" fill="#54535B"/>
<path d="M579.8 219.727V170.983C579.8 169.775 580.281 168.616 581.137 167.762C581.992 166.907 583.153 166.427 584.363 166.427H599.465C601.729 166.397 603.977 166.815 606.079 167.657C608.18 168.498 610.095 169.747 611.711 171.331C613.327 172.915 614.613 174.803 615.494 176.885C616.376 178.968 616.836 181.204 616.848 183.465C616.855 186.98 615.758 190.408 613.712 193.268C611.666 196.128 608.774 198.276 605.442 199.41L615.935 217.541C616.331 218.184 616.537 218.927 616.529 219.682C616.529 220.89 616.048 222.049 615.192 222.903C614.337 223.757 613.176 224.237 611.966 224.237C611.178 224.225 610.406 224.008 609.726 223.609C609.047 223.21 608.482 222.641 608.088 221.96L595.541 200.64H588.652V219.727C588.652 220.936 588.171 222.094 587.315 222.949C586.46 223.803 585.299 224.283 584.089 224.283C582.879 224.283 581.719 223.803 580.863 222.949C580.007 222.094 579.527 220.936 579.527 219.727H579.8ZM599.419 191.574C601.595 191.552 603.679 190.691 605.234 189.172C606.79 187.652 607.698 185.591 607.769 183.42C607.745 182.345 607.509 181.285 607.073 180.302C606.638 179.318 606.012 178.431 605.232 177.69C604.452 176.949 603.532 176.369 602.527 175.984C601.522 175.6 600.45 175.417 599.373 175.447H588.789V191.574H599.419Z" fill="#54535B"/>
<path d="M622.505 195.492C622.479 189.7 624.18 184.033 627.393 179.211C630.605 174.389 635.183 170.631 640.542 168.417C645.902 166.204 651.801 165.634 657.486 166.78C663.171 167.927 668.386 170.738 672.465 174.855C672.888 175.252 673.224 175.732 673.452 176.265C673.679 176.799 673.794 177.373 673.788 177.953C673.752 178.818 673.47 179.654 672.975 180.365C672.48 181.075 671.792 181.63 670.993 181.965C670.194 182.299 669.315 182.4 668.461 182.254C667.606 182.108 666.811 181.722 666.168 181.142C663.327 178.311 659.71 176.385 655.772 175.606C651.835 174.827 647.755 175.231 644.048 176.767C640.34 178.302 637.172 180.901 634.943 184.234C632.714 187.566 631.524 191.484 631.524 195.492C631.524 199.499 632.714 203.417 634.943 206.75C637.172 210.083 640.34 212.681 644.048 214.217C647.755 215.752 651.835 216.156 655.772 215.378C659.71 214.599 663.327 212.672 666.168 209.842C667.021 209.044 668.148 208.604 669.317 208.612C669.926 208.571 670.537 208.662 671.109 208.876C671.681 209.091 672.2 209.425 672.632 209.857C673.064 210.288 673.399 210.806 673.614 211.377C673.829 211.948 673.919 212.559 673.879 213.167C673.874 214.34 673.417 215.466 672.602 216.311C668.523 220.409 663.317 223.206 657.643 224.344C651.97 225.483 646.086 224.913 640.738 222.707C635.389 220.501 630.818 216.758 627.605 211.953C624.391 207.148 622.68 201.497 622.688 195.72L622.505 195.492Z" fill="#54535B"/>
<path d="M681.639 219.727V170.983C681.639 169.775 682.12 168.616 682.976 167.762C683.831 166.907 684.992 166.427 686.202 166.427C687.412 166.427 688.572 166.907 689.428 167.762C690.284 168.616 690.764 169.775 690.764 170.983V190.982H715.356V170.983C715.356 169.775 715.837 168.616 716.692 167.762C717.548 166.907 718.709 166.427 719.919 166.427C721.129 166.427 722.289 166.907 723.145 167.762C724 168.616 724.481 169.775 724.481 170.983V219.727C724.481 220.936 724 222.094 723.145 222.949C722.289 223.803 721.129 224.283 719.919 224.283C718.709 224.283 717.548 223.803 716.692 222.949C715.837 222.094 715.356 220.936 715.356 219.727V199.956H690.764V219.727C690.764 220.936 690.284 222.094 689.428 222.949C688.572 223.803 687.412 224.283 686.202 224.283C684.992 224.283 683.831 223.803 682.976 222.949C682.12 222.094 681.639 220.936 681.639 219.727Z" fill="#54535B"/>
<path style="mix-blend-mode:multiply" opacity="0.4" d="M178.622 410C277.272 410 357.244 403.535 357.244 395.559C357.244 387.583 277.272 381.118 178.622 381.118C79.9717 381.118 0 387.583 0 395.559C0 403.535 79.9717 410 178.622 410Z" fill="url(#paint0_radial_14_4182)"/>
<path d="M194.638 306.055C162.974 315.166 131.265 306.055 101.153 286.694C48.2732 252.527 36.7301 186.472 66.2039 131.805C97.2745 74.4506 166.579 58.415 222.378 91.9895C233.698 98.7466 243.788 107.373 252.217 117.501C258.028 124.624 265.738 129.961 274.457 132.895C283.176 135.829 292.548 136.241 301.492 134.083L303.043 133.673C307.827 132.506 312.28 130.263 316.064 127.117C319.848 123.97 322.863 120.003 324.878 115.517C326.894 111.031 327.857 106.144 327.694 101.23C327.531 96.3162 326.247 91.504 323.939 87.1606C309.778 60.7488 288.654 38.7054 262.853 23.414C237.051 8.12269 207.554 0.165427 177.55 0.402768C147.547 0.640109 118.179 9.06302 92.6237 24.7606C67.068 40.4582 46.2967 62.8331 32.556 89.4656C18.8153 116.098 12.6282 145.975 14.6638 175.864C16.6993 205.754 26.8801 234.519 44.105 259.049C61.33 283.579 84.9436 302.941 112.392 315.039C139.841 327.138 170.08 331.514 199.839 327.694C201.314 327.477 202.729 326.961 203.997 326.178C205.265 325.396 206.36 324.363 207.215 323.143C208.069 321.923 208.665 320.542 208.966 319.084C209.267 317.627 209.266 316.123 208.964 314.665C208.643 313.131 208.008 311.68 207.099 310.402C206.19 309.125 205.027 308.048 203.682 307.24C202.338 306.432 200.84 305.909 199.284 305.706C197.728 305.502 196.146 305.621 194.638 306.055Z" fill="url(#paint1_linear_14_4182)"/>
<path style="mix-blend-mode:multiply" opacity="0.6" d="M194.638 306.055C162.974 315.166 131.265 306.055 101.153 286.694C48.2732 252.527 36.7301 186.472 66.2039 131.805C97.2745 74.4506 166.579 58.415 222.378 91.9895C233.698 98.7466 243.788 107.373 252.217 117.501C258.028 124.624 265.738 129.961 274.457 132.895C283.176 135.829 292.548 136.241 301.492 134.083L303.043 133.673C307.827 132.506 312.28 130.263 316.064 127.117C319.848 123.97 322.863 120.003 324.878 115.517C326.894 111.031 327.857 106.144 327.694 101.23C327.531 96.3162 326.247 91.504 323.939 87.1606C309.778 60.7488 288.654 38.7054 262.853 23.414C237.051 8.12269 207.554 0.165427 177.55 0.402768C147.547 0.640109 118.179 9.06302 92.6237 24.7606C67.068 40.4582 46.2967 62.8331 32.556 89.4656C18.8153 116.098 12.6282 145.975 14.6638 175.864C16.6993 205.754 26.8801 234.519 44.105 259.049C61.33 283.579 84.9436 302.941 112.392 315.039C139.841 327.138 170.08 331.514 199.839 327.694C201.314 327.477 202.729 326.961 203.997 326.178C205.265 325.396 206.36 324.363 207.215 323.143C208.069 321.923 208.665 320.542 208.966 319.084C209.267 317.627 209.266 316.123 208.964 314.665C208.643 313.131 208.008 311.68 207.099 310.402C206.19 309.125 205.027 308.048 203.682 307.24C202.338 306.432 200.84 305.909 199.284 305.706C197.728 305.502 196.146 305.621 194.638 306.055Z" fill="url(#paint2_linear_14_4182)"/>
<path d="M60.3141 132.716C76.5024 105.974 102.618 86.7028 132.973 79.1001C163.328 71.4974 195.461 76.1794 222.374 92.1261C233.694 98.8832 243.784 107.509 252.213 117.637C258.023 124.761 265.733 130.098 274.453 133.032C283.172 135.966 292.544 136.378 301.488 134.219L303.039 133.809C307.842 132.648 312.314 130.403 316.113 127.248C319.911 124.092 322.936 120.109 324.953 115.606C326.971 111.102 327.928 106.196 327.752 101.265C327.575 96.3342 326.27 91.5093 323.935 87.1606C310.501 62.1116 290.791 40.9692 266.729 25.7975C242.667 10.6258 215.077 1.94339 186.651 0.597939C158.225 -0.747511 129.936 5.29001 104.544 18.121C79.1534 30.952 57.5285 50.138 41.7812 73.8057C26.0339 97.4733 16.7024 124.814 14.6978 153.158C12.6932 181.502 18.084 209.88 30.3439 235.523C42.6038 261.165 61.3137 283.195 84.6469 299.461C107.98 315.728 135.139 325.675 163.472 328.332C25.046 303.458 33.9428 175.857 60.3141 132.716Z" fill="url(#paint3_linear_14_4182)"/>
<path style="mix-blend-mode:multiply" opacity="0.6" d="M60.3141 132.716C76.5024 105.974 102.618 86.7028 132.973 79.1001C163.328 71.4974 195.461 76.1794 222.374 92.1261C233.694 98.8832 243.784 107.509 252.213 117.637C258.023 124.761 265.733 130.098 274.453 133.032C283.172 135.966 292.544 136.378 301.488 134.219L303.039 133.809C307.842 132.648 312.314 130.403 316.113 127.248C319.911 124.092 322.936 120.109 324.953 115.606C326.971 111.102 327.928 106.196 327.752 101.265C327.575 96.3342 326.27 91.5093 323.935 87.1606C310.501 62.1116 290.791 40.9692 266.729 25.7975C242.667 10.6258 215.077 1.94339 186.651 0.597939C158.225 -0.747511 129.936 5.29001 104.544 18.121C79.1534 30.952 57.5285 50.138 41.7812 73.8057C26.0339 97.4733 16.7024 124.814 14.6978 153.158C12.6932 181.502 18.084 209.88 30.3439 235.523C42.6038 261.165 61.3137 283.195 84.6469 299.461C107.98 315.728 135.139 325.675 163.472 328.332C25.046 303.458 33.9428 175.857 60.3141 132.716Z" fill="url(#paint4_linear_14_4182)"/>
<path d="M137.423 52.7662C205.861 50.534 238.346 89.894 255.181 115.678C259.904 123.303 266.948 129.218 275.282 132.554C283.615 135.891 292.8 136.475 301.491 134.22L303.042 133.81C307.844 132.648 312.317 130.403 316.115 127.248C319.914 124.092 322.938 120.11 324.956 115.606C326.973 111.102 327.931 106.196 327.754 101.265C327.578 96.3343 326.272 91.5094 323.938 87.1606C306.445 54.3186 278.308 28.3748 244.131 13.5718C209.953 -1.23125 171.756 -4.01744 135.787 5.6688C99.8173 15.355 68.2036 36.9405 46.1156 66.8954C24.0275 96.8502 12.7721 133.402 14.19 170.573C12.8669 102.65 68.8487 54.9984 137.423 52.7662Z" fill="url(#paint5_linear_14_4182)"/>
<path d="M303.04 127.751L301.488 128.115C292.798 130.37 283.613 129.787 275.279 126.45C266.946 123.113 259.901 117.199 255.179 109.574C238.343 83.835 205.95 44.475 137.421 46.6617C68.8921 48.8483 12.8646 96.7728 14.2334 164.468C14.2334 163.512 14.2334 162.509 14.2334 161.553C14.2334 164.559 14.2334 167.566 14.2334 170.664C12.9102 102.741 68.9834 55.0895 137.421 52.8572C205.858 50.625 238.343 89.8939 255.179 115.678C259.901 123.303 266.946 129.218 275.279 132.554C283.613 135.891 292.798 136.475 301.488 134.219L303.04 133.809C310.551 131.936 317.14 127.435 321.611 121.124C326.081 114.813 328.136 107.11 327.403 99.415C326.781 106.076 324.103 112.379 319.739 117.455C315.375 122.531 309.539 126.128 303.04 127.751Z" fill="url(#paint6_linear_14_4182)"/>
<path d="M242.13 307.194C242.13 309.546 241.432 311.844 240.123 313.8C238.815 315.755 236.955 317.279 234.779 318.179C232.603 319.079 230.209 319.314 227.899 318.855C225.589 318.397 223.467 317.264 221.802 315.601C220.136 313.939 219.002 311.82 218.543 309.514C218.083 307.207 218.319 304.816 219.22 302.644C220.122 300.471 221.648 298.614 223.606 297.308C225.564 296.001 227.867 295.304 230.222 295.304C233.38 295.304 236.409 296.557 238.642 298.786C240.876 301.016 242.13 304.041 242.13 307.194Z" fill="url(#paint7_linear_14_4182)"/>
<path d="M194.635 306.055C162.971 315.166 131.262 306.055 101.15 286.694C85.5605 276.848 72.7152 263.23 63.8058 247.102C54.8964 230.975 50.2117 212.862 50.1865 194.444C49.5471 213.538 53.9128 232.467 62.8514 249.358C71.7901 266.249 84.9917 280.517 101.15 290.748C131.262 310.383 162.971 319.494 194.635 310.11C196.158 309.653 197.759 309.519 199.337 309.715C200.915 309.91 202.434 310.432 203.799 311.246C205.164 312.06 206.344 313.149 207.264 314.444C208.184 315.738 208.825 317.21 209.144 318.765C209.417 317.381 209.417 315.958 209.144 314.574C208.815 313.028 208.167 311.567 207.242 310.284C206.316 309.002 205.133 307.925 203.769 307.124C202.404 306.323 200.887 305.814 199.315 305.63C197.742 305.446 196.149 305.591 194.635 306.055Z" fill="url(#paint8_linear_14_4182)"/>
<path d="M266.816 292.434C266.816 294.157 266.303 295.841 265.344 297.273C264.384 298.705 263.021 299.82 261.426 300.477C259.831 301.134 258.076 301.304 256.384 300.964C254.693 300.625 253.14 299.792 251.923 298.57C250.706 297.349 249.88 295.794 249.549 294.103C249.218 292.413 249.397 290.662 250.063 289.073C250.73 287.483 251.854 286.128 253.293 285.177C254.732 284.227 256.422 283.724 258.147 283.733C259.289 283.733 260.42 283.958 261.475 284.396C262.53 284.834 263.487 285.476 264.293 286.284C265.098 287.093 265.736 288.052 266.169 289.108C266.602 290.163 266.822 291.294 266.816 292.434Z" fill="url(#paint9_linear_14_4182)"/>
<path d="M277.718 283.733C280.817 283.733 283.33 281.224 283.33 278.129C283.33 275.035 280.817 272.526 277.718 272.526C274.618 272.526 272.106 275.035 272.106 278.129C272.106 281.224 274.618 283.733 277.718 283.733Z" fill="url(#paint10_linear_14_4182)"/>
<path d="M60.3141 132.716C70.7273 115.602 85.2888 101.382 102.655 91.3659C120.022 81.3503 139.635 75.862 159.685 75.4074C138.827 75.0331 118.235 80.1285 99.9655 90.1846C81.6959 100.241 66.3877 114.906 55.5691 132.716C29.791 174.81 20.7116 297.4 149.1 326.373C153.663 327.238 158.682 327.922 163.472 328.332C25.046 303.458 33.9428 175.857 60.3141 132.716Z" fill="url(#paint11_linear_14_4182)"/>
<defs>
<radialGradient id="paint0_radial_14_4182" cx="0" cy="0" r="1" gradientUnits="userSpaceOnUse" gradientTransform="translate(178.622 396.208) scale(169.223 11.8276)">
<stop offset="0.11" stop-color="#666666"/>
<stop offset="0.29" stop-color="#7C7C7C" stop-opacity="0.85"/>
<stop offset="0.63" stop-color="#B7B7B7" stop-opacity="0.47"/>
<stop offset="1" stop-color="white" stop-opacity="0"/>
</radialGradient>
<linearGradient id="paint1_linear_14_4182" x1="14.0545" y1="164.833" x2="327.589" y2="164.833" gradientUnits="userSpaceOnUse">
<stop stop-color="#FA71CD"/>
<stop offset="1" stop-color="#C471F5"/>
</linearGradient>
<linearGradient id="paint2_linear_14_4182" x1="11727.1" y1="8357.66" x2="11968.3" y2="20950.6" gradientUnits="userSpaceOnUse">
<stop offset="0.11" stop-color="#666666"/>
<stop offset="0.29" stop-color="#7C7C7C" stop-opacity="0.85"/>
<stop offset="0.63" stop-color="#B7B7B7" stop-opacity="0.47"/>
<stop offset="1" stop-color="white" stop-opacity="0"/>
</linearGradient>
<linearGradient id="paint3_linear_14_4182" x1="185.737" y1="57.0028" x2="142.611" y2="258.613" gradientUnits="userSpaceOnUse">
<stop stop-color="#764BA2"/>
<stop offset="1" stop-color="#667EEA"/>
</linearGradient>
<linearGradient id="paint4_linear_14_4182" x1="17550.5" y1="8526.28" x2="6116.52" y2="13418.5" gradientUnits="userSpaceOnUse">
<stop offset="0.11" stop-color="#666666"/>
<stop offset="0.29" stop-color="#7C7C7C" stop-opacity="0.85"/>
<stop offset="0.63" stop-color="#B7B7B7" stop-opacity="0.47"/>
<stop offset="1" stop-color="white" stop-opacity="0"/>
</linearGradient>
<linearGradient id="paint5_linear_14_4182" x1="14.0531" y1="85.5662" x2="327.543" y2="85.5662" gradientUnits="userSpaceOnUse">
<stop stop-color="#4FACFE"/>
<stop offset="1" stop-color="#00F2FE"/>
</linearGradient>
<linearGradient id="paint6_linear_14_4182" x1="14.0965" y1="108.572" x2="327.54" y2="108.572" gradientUnits="userSpaceOnUse">
<stop stop-color="#00EDFF"/>
<stop offset="1" stop-color="#00F2FE" stop-opacity="0"/>
</linearGradient>
<linearGradient id="paint7_linear_14_4182" x1="1433.42" y1="1835.29" x2="1402.07" y2="1977.99" gradientUnits="userSpaceOnUse">
<stop stop-color="#FA71CD"/>
<stop offset="1" stop-color="#C471F5"/>
</linearGradient>
<linearGradient id="paint8_linear_14_4182" x1="103.841" y1="253.712" x2="201.29" y2="268.424" gradientUnits="userSpaceOnUse">
<stop stop-color="#FF99F5"/>
<stop offset="0.99" stop-color="#C471F5" stop-opacity="0"/>
</linearGradient>
<linearGradient id="paint9_linear_14_4182" x1="1239.87" y1="1363.89" x2="1230.66" y2="1435.07" gradientUnits="userSpaceOnUse">
<stop stop-color="#FA71CD"/>
<stop offset="1" stop-color="#C471F5"/>
</linearGradient>
<linearGradient id="paint10_linear_14_4182" x1="957.653" y1="943.023" x2="951.722" y2="973.284" gradientUnits="userSpaceOnUse">
<stop stop-color="#FA71CD"/>
<stop offset="1" stop-color="#C471F5"/>
</linearGradient>
<linearGradient id="paint11_linear_14_4182" x1="94.8978" y1="283.232" x2="138.48" y2="95.4681" gradientUnits="userSpaceOnUse">
<stop stop-color="#90A8FC"/>
<stop offset="1" stop-color="#667EEA" stop-opacity="0"/>
</linearGradient>
</defs>
</svg>
